<?xml version="1.0" standalone="no"?>
<!DOCTYPE svg PUBLIC "-//W3C//DTD SVG 1.1//EN" "http://www.w3.org/Graphics/SVG/1.1/DTD/svg11.dtd" >
<svg xmlns="http://www.w3.org/2000/svg">
<metadata></metadata>
<defs>
<font id="gesseleregular" horiz-adv-x="421" >
<font-face units-per-em="2048" ascent="1638" descent="-410" />
<missing-glyph horiz-adv-x="287" />
<glyph unicode="&#xd;" horiz-adv-x="287" />
<glyph unicode=" "  horiz-adv-x="287" />
<glyph unicode="&#x09;" horiz-adv-x="287" />
<glyph unicode="&#xa0;" horiz-adv-x="287" />
<glyph unicode="!" horiz-adv-x="227" d="M52 60q0 55 32 64.5t42 9.5q32 0 52 -27q11 -17 11 -35q0 -25 -15 -46.5t-32.5 -25.5t-24.5 -4q-37 0 -51 23.5t-14 40.5zM64 879q7 10 29 10q25 0 48.5 -12.5t23.5 -33.5q0 -118 -6.5 -244t-14 -204t-8.5 -78q1 -14 -6 -22t-19 -8q-25 0 -28 20z" />
<glyph unicode="&#x22;" horiz-adv-x="246" d="M13 894l20 130q0 33 -10 57q22 17 58 16q14 0 21 -1q4 -11 5 -21.5t1 -23.5q0 -34 -14 -66t-41 -62q-20 -14 -40 -29zM128 894q10 65 19 130q0 33 -10 57q22 17 58 16q15 0 22 -1q4 -11 5 -21.5t1 -23.5q0 -34 -14.5 -66t-41.5 -62q-20 -14 -39 -29z" />
<glyph unicode="$" horiz-adv-x="826" d="M30 254q0 43 19.5 91.5t52 79t64.5 39t45 8.5q40 0 72.5 -27t44.5 -67q-27 7 -37 9.5t-27 2.5q-27 0 -56.5 -14.5t-48 -48t-18.5 -73.5q0 -27 16 -68t64.5 -77.5t115.5 -54.5v548q-182 87 -235.5 151.5t-53.5 147.5q0 54 23 122q34 82 102 124t164 54v129h39v-126l20 1 h31.5t35.5 -3v128h38v-131q98 -14 163.5 -59.5t78 -101t12.5 -78.5q0 -52 -26.5 -94.5t-61.5 -54t-47 -11.5q-19 0 -37.5 6t-33.5 11q39 22 62 43.5t32 46.5t11.5 41.5t2.5 32.5q0 76 -37 103.5t-64 45.5t-55 30v-491q98 -46 156.5 -83.5t97.5 -94.5t39 -134 q0 -23 -3.5 -48.5t-21.5 -90t-89.5 -121t-178.5 -80.5v-142h-38v135l-16 -3q-40 -6 -71 -6v-126h-39v127q-65 6 -124 33.5t-121 79.5t-62 139zM135 978q0 -77 48 -121t78 -64.5t76 -44.5v436q-13 -2 -29 -7t-53.5 -22t-70.5 -48t-41 -68t-8 -61zM376 45q14 -2 42 -5.5 t41 -3.5l4 505l-87 43v-539zM376 728l87 -41v488q-44 14 -87 14v-461zM501 37q65 8 110.5 46.5t67.5 89.5t22 85q0 45 -24 90.5t-68 89.5t-108 81v-482z" />
<glyph unicode="%" horiz-adv-x="732" d="M35 978q0 20 3 39t17 66.5t56.5 90.5t83.5 55t56 12q36 0 65 -26.5t42 -65.5q12 -36 12 -72q0 -42 -16.5 -79t-47.5 -75t-69 -59t-77 -21q-30 0 -60.5 14t-47.5 46t-17 75zM45 -1q49 134 131.5 353t209 498t215.5 378q-63 -124 -166.5 -411t-169.5 -488.5t-107 -329.5 h-113zM93 1064q0 -41 15 -82t41 -76q20 -24 53 -24q34 0 65 41t31 112q-1 50 -20 93q-13 28 -40.5 50.5t-55.5 22.5q-25 0 -46.5 -21.5t-32 -52.5t-10.5 -63zM305 140q0 20 3 39t17 66.5t56.5 90t83.5 54.5t55 12q36 0 65.5 -26t42.5 -65q12 -36 12 -72q0 -42 -16.5 -79 t-47.5 -75t-69 -59t-77 -21q-30 0 -60.5 14t-47.5 45.5t-17 75.5zM363 225q0 -41 15 -82t41 -76q20 -24 53 -24q34 0 64.5 41t30.5 112q0 50 -19 93q-13 28 -41 51t-55 23q-25 0 -46.5 -22t-32 -52.5t-10.5 -63.5z" />
<glyph unicode="'" horiz-adv-x="144" d="M13 894l20 130q0 33 -10 57q22 17 58 16q14 0 21 -1q4 -11 5 -21.5t1 -23.5q0 -34 -14 -66t-41 -62q-20 -14 -40 -29z" />
<glyph unicode="(" horiz-adv-x="301" d="M10 596q0 -149 67.5 -307.5t205.5 -348.5q-95 192 -141.5 347.5t-46.5 302.5q0 274 188 651q-140 -184 -206.5 -341t-66.5 -304z" />
<glyph unicode=")" horiz-adv-x="301" d="M12 -60q95 192 141.5 347.5t46.5 302.5q0 273 -188 651q140 -184 207 -341t67 -304q0 -149 -67.5 -307.5t-206.5 -348.5z" />
<glyph unicode="+" horiz-adv-x="536" d="M54 458v30h157v157h108v-157h169v-30h-169v-205h-108v205h-157z" />
<glyph unicode="," horiz-adv-x="144" d="M13 -89l20 130q0 33 -10 57q22 17 58 16q14 0 21 -1q4 -11 5 -21.5t1 -24.5q0 -34 -14 -65.5t-41 -61.5q-20 -14 -40 -29z" />
<glyph unicode="-" d="M51 488q29 5 74 9t97 4t90.5 -4t81.5 -16q-5 4 -8.5 11t-3.5 26q0 17 1 25t9 29q-71 0 -175 -11.5t-159 -28.5q0 -13 -2.5 -23.5t-4.5 -20.5z" />
<glyph unicode="." horiz-adv-x="289" d="M29 104q0 39 24.5 73t48.5 40t33.5 7t16.5 1q53 1 87 -44q18 -23 18 -58q0 -41 -25 -77t-52.5 -42t-42.5 -6q-61 0 -84.5 38.5t-23.5 67.5z" />
<glyph unicode="/" horiz-adv-x="602" d="M45 -1q49 134 131.5 353t209 498t215.5 378q-63 -124 -166.5 -411t-169.5 -488.5t-107 -329.5h-113z" />
<glyph unicode="0" horiz-adv-x="643" d="M30 352q0 155 53 276t132 173.5t109 65t62 12.5q42 0 86.5 -19.5t71 -47.5t39.5 -74q36 -119 36 -239q0 -123 -37 -227.5t-98.5 -165.5t-104.5 -86t-92 -25q-42 0 -105 28.5t-107.5 123.5t-44.5 205zM167 402q0 -66 5.5 -132t9.5 -108t52.5 -87.5t97.5 -45.5q19 0 71 23 t75 109.5t23 237.5v46q0 112 -14 196.5t-44.5 129.5t-54.5 61t-51 16q-23 0 -68 -38.5t-73.5 -150t-28.5 -257.5z" />
<glyph unicode="1" horiz-adv-x="302" d="M12 355q0 114 53.5 254t106.5 270q7 10 29 10q25 0 48.5 -12.5t23.5 -33.5v-825q0 -16 -13 -23.5t-36 -7.5q-48 0 -51 20v136.5t2 140.5q0 131 -4 250.5t-14 224.5q-31 -69 -63 -136q-28 -77 -38.5 -130t-10.5 -127z" />
<glyph unicode="2" horiz-adv-x="561" d="M16 661q0 67 45 124.5t104 79.5t101 22q105 0 161 -63t71 -102.5t15 -86.5q0 -49 -16 -118.5t-73 -125t-157.5 -123.5t-138.5 -111q42 14 84 14q61 0 136 -41t98 -41q22 0 42.5 15.5t40.5 52.5q7 -13 7 -26q0 -24 -29.5 -56.5t-73 -53.5t-79.5 -21q-45 0 -119.5 34.5 t-103.5 34.5q-23 0 -43.5 -11.5t-38.5 -40.5q-1 5 -2 15t-1 16q0 13 17 64t103.5 147t165.5 183q78 101 79 192q0 35 -9 68.5t-40 91.5t-116 58q-17 0 -61.5 -10t-62 -47.5t-20 -50t-2.5 -24.5q0 -36 32.5 -84t32.5 -64q0 -14 -9 -25t-26.5 -19.5t-28.5 -8.5q-24 0 -44 23.5 t-30.5 55.5t-10.5 63z" />
<glyph unicode="3" horiz-adv-x="574" d="M25 689q0 49 32 88t90.5 73.5t130.5 34.5q65 0 115 -28.5t63 -69.5t13 -65q0 -51 -29.5 -98t-78.5 -87q95 -40 133 -77t52 -89q12 -43 12 -84q0 -46 -19 -89t-60.5 -94.5t-101.5 -80.5t-128 -29q-65 0 -117 22.5t-75 50.5t-23 76q0 37 19.5 65.5t58.5 28.5 q24 0 40.5 -17.5t20 -39t3.5 -28.5q0 -19 -2.5 -34.5t-4.5 -35.5q0 -11 5.5 -23.5t38.5 -23.5t64 -11q61 0 106 37.5t58.5 70t13.5 74.5q0 27 -5 54t-19.5 77t-42 87t-59 47t-45.5 10q-19 0 -63.5 -16.5t-63.5 -16.5q10 8 86 50.5t102.5 89.5t26.5 100q0 48 -26 87t-48.5 58 t-56.5 19q-6 0 -33.5 -5.5t-54.5 -26t-36 -46t-9 -34.5q0 -19 19.5 -53.5t19.5 -46.5q0 -11 -5.5 -20.5t-17 -19.5t-25.5 -10q-19 0 -38.5 14.5t-25 29t-8 30t-2.5 25.5z" />
<glyph unicode="4" horiz-adv-x="556" d="M25 182q17 80 67 237.5t72.5 238t40.5 214.5q18 10 52 10q12 0 26.5 -2t28.5 -3q-23 -89 -58.5 -177t-103.5 -246.5t-97 -240.5q23 8 41.5 11.5t45.5 3.5q19 0 37.5 -1.5t36.5 -2.5q22 0 31 2t28 9v294q0 18 22.5 30t47.5 12q30 0 30 -19v-172v-145q11 0 30.5 -3.5 t27.5 -3.5q18 0 28.5 9t10.5 18q0 8 -14 34.5t-14 34.5q0 18 14 26t22 8q13 0 24.5 -7.5t19.5 -20.5q12 -19 12 -41q0 -46 -27.5 -66.5t-48.5 -20.5q-14 0 -35.5 6t-49.5 15q0 -14 -1 -59t-1 -68v-41t2 -33q0 -13 -19 -22.5t-43 -9.5q-37 0 -38 26l2 202q-17 -8 -40.5 -12 t-45.5 -4q-12 0 -37.5 1.5t-37.5 1.5q-30 0 -49.5 -4.5t-39.5 -18.5z" />
<glyph unicode="5" horiz-adv-x="571" d="M30 165q0 41 18 70t59 37q24 6 39 -15t29 -57q7 -20 -18.5 -48t-25.5 -44q0 -18 29 -54t101 -36q29 0 80.5 15t87 64.5t35.5 118.5q0 8 -1.5 18.5t-11 84t-61 148t-165.5 74.5q-47 0 -94 -30t-47 -76q1 -8 2 -12h-23v453q13 4 24 3q24 0 78 -21t82 -21q22 0 61.5 -2.5 t56.5 -2.5q33 0 54.5 4.5t45.5 17.5q-8 -42 -39.5 -72t-73 -39t-80.5 -9q-49 0 -83.5 8.5t-106.5 33.5v-274q31 37 85.5 61t114.5 24q41 0 88 -15t82 -47t64 -90q16 -30 23 -63t7 -66q0 -54 -17.5 -103.5t-78.5 -126.5t-203 -77q-81 0 -138.5 28t-68 71t-10.5 67z" />
<glyph unicode="6" horiz-adv-x="567" d="M30 222q0 175 12 286t67 213t128 135.5t103 33.5q43 0 80 -23.5t49.5 -53.5t12.5 -49q0 -33 -16.5 -57t-43.5 -24q-31 0 -42 15t-11 44q0 8 1 26.5t1 26.5q0 25 -6 35t-23 16t-36 6q-45 0 -81 -32t-49 -76.5t-18.5 -91t-5.5 -88.5q0 -22 1 -65.5t1 -64.5q45 52 91.5 86 t99.5 34q37 0 77.5 -24t66 -55.5t41.5 -80.5q20 -64 21 -118q0 -108 -63.5 -170.5t-111 -86t-98.5 -23.5q-28 0 -49.5 5t-65.5 25.5t-88.5 79.5t-44.5 116zM149 275q0 -89 22 -153.5t64 -83t73 -18.5q67 0 99.5 57.5t32.5 153.5q0 36 -5 74.5t-16 73.5q-14 47 -49 75.5 t-83 28.5q-16 0 -40.5 -5.5t-49.5 -27.5t-39 -52q-4 -28 -6.5 -59t-2.5 -64z" />
<glyph unicode="7" horiz-adv-x="584" d="M27 571q7 19 9.5 48.5t2.5 61.5q0 20 -1 41t-1 43q0 41 4.5 67.5t16.5 46.5q49 -16 116.5 -24t129.5 -8q65 0 124.5 5.5t129.5 17.5q-11 -57 -62 -166t-82 -234t-60 -241t-29 -229l-101 1q17 120 57.5 243t99 255.5t114.5 258.5q-10 1 -31.5 1.5t-39.5 1.5 q-36 0 -125 -6.5t-116 -6.5q-69 0 -123 13l-6 -213q-6 -4 -13 4.5t-14 18.5z" />
<glyph unicode="8" horiz-adv-x="581" d="M34 216v17.5t10 53t57 81.5t125 75q-67 42 -120 102.5t-53 123.5q0 11 1 16q0 59 48.5 113.5t101.5 67.5t91 13q87 0 157 -42t78.5 -84t8.5 -52q0 -54 -61 -116t-123 -97q88 -55 140 -106.5t57 -94t5 -53.5q0 -69 -63 -132t-141 -92q-18 -5 -39 -10t-51 -5 q-40 0 -72 10.5t-94.5 56.5t-62.5 154zM110 226q0 -35 16 -81.5t45.5 -80t63.5 -44t52 -10.5q27 0 72 15t85 69t40 102q0 18 -7 32q-36 55 -138.5 129.5t-103.5 74.5q-55 -28 -90 -83.5t-35 -122.5zM131 728q0 -59 44.5 -104t90 -76.5t76.5 -53.5q46 24 80.5 77t34.5 108 q0 10 -1 21.5t-9 31.5q-20 54 -45 83t-56.5 37.5t-44 11t-26.5 2.5q-43 0 -77 -20t-46.5 -45.5t-16.5 -42.5t-4 -30z" />
<glyph unicode="9" horiz-adv-x="584" d="M33 622q0 22 1 33.5t14 66.5t74.5 106t148.5 51q83 0 138.5 -23.5t89.5 -84.5q67 -122 67 -270q0 -111 -37 -216t-89 -169t-96.5 -90.5t-92.5 -26.5q-29 0 -69 14t-66.5 39.5t-36 57.5t-9.5 51q0 33 14 56t41 23q92 0 98 -111.5t40 -111.5q23 0 62 19q69 51 99 145 t30 209q0 52 -4.5 103.5t-13.5 98.5q-10 -55 -38 -97.5t-78 -65t-97 -22.5q-86 0 -138 61t-52 154zM125 665q0 -104 50 -155.5t95 -51.5q51 0 87.5 31t50.5 68t14 81q0 30 -5.5 64t-9.5 53q-8 46 -45 73t-85 27q-14 0 -40.5 -5.5t-51.5 -23.5t-42.5 -63t-17.5 -98z" />
<glyph unicode=":" horiz-adv-x="209" d="M30 64q0 55 32 64t43 9q32 1 52 -26q11 -17 10 -35q0 -25 -15 -47t-32.5 -25.5t-24.5 -3.5q-37 0 -51 23.5t-14 40.5zM30 566q0 55 32 64.5t43 9.5q32 0 52 -27q11 -17 10 -35q0 -25 -15 -46.5t-32.5 -25.5t-24.5 -4q-37 0 -51 23.5t-14 40.5z" />
<glyph unicode=";" horiz-adv-x="180" d="M30 566q0 55 32 64.5t43 9.5q32 0 52 -27q11 -17 10 -35q0 -25 -15 -46.5t-32.5 -25.5t-24.5 -4q-37 0 -51 23.5t-14 40.5zM60 -89l20 130q0 33 -10 57q22 17 58 16q14 0 21 -1q4 -11 5 -21.5t1 -24.5q0 -34 -14.5 -65.5t-40.5 -61.5q-20 -14 -40 -29z" />
<glyph unicode="=" d="M51 302q29 5 74 9.5t97 4.5t90.5 -4.5t81.5 -16.5q-5 4 -8.5 11t-3.5 26q0 17 1 25t9 30q-71 0 -175 -11.5t-159 -28.5q0 -13 -2.5 -24t-4.5 -21zM51 488q29 5 74 9t97 4t90.5 -4t81.5 -16q-5 4 -8.5 11t-3.5 26q0 17 1 25t9 29q-71 0 -175 -11.5t-159 -28.5 q0 -13 -2.5 -23.5t-4.5 -20.5z" />
<glyph unicode="?" horiz-adv-x="574" d="M25 689q0 49 32 88t89.5 73t129.5 34q63 0 113.5 -29t66.5 -71t16 -71q0 -54 -32 -104.5t-79 -89.5q-5 -2 -91 -44t-93 -67t-7 -42q0 -45 38 -61t100 -16q-35 -11 -60 -11q-51 0 -78 32.5t-27 72.5q0 28 19 54t91 63t88 65.5t24 58.5t8 59q0 25 -6 48.5t-27 53t-44 48.5 t-55 19q-6 0 -33.5 -5.5t-54.5 -26t-36 -46t-9 -34.5q0 -19 19.5 -53.5t19.5 -46.5q0 -11 -5.5 -20.5t-17 -19.5t-25.5 -10q-19 0 -38.5 14.5t-25 29t-8 30t-2.5 25.5zM160 60q0 55 32 64.5t43 9.5q32 0 52 -27q11 -17 11 -35q0 -25 -15.5 -46.5t-32.5 -25.5t-25 -4 q-37 0 -51 23.5t-14 40.5z" />
<glyph unicode="A" horiz-adv-x="1222" d="M1 205q0 28 5.5 57.5t33 54t62.5 24.5q14 0 33.5 -8t40 -38.5t20.5 -51.5q0 -13 -13 -12q-39 -8 -62 -39.5t-23 -69.5q0 -22 9 -45q39 -52 101 -52q35 0 72.5 25t59 55.5t21.5 72.5q0 95 -6 264t-6 243q0 131 13.5 238.5t36.5 178.5t50 86.5t64 15.5q58 0 110 -31.5 t69.5 -86t24 -128t6.5 -173.5q0 -61 -3.5 -196t-3.5 -202q0 -128 12 -229q8 -36 34.5 -61t58.5 -40t54.5 -19.5t44.5 -4.5q66 0 123.5 37.5t87.5 90t30 99.5q0 86 -50.5 126t-77 52.5t-55.5 12.5t-70.5 -27.5t-41.5 -93.5q0 -27 9 -50t23 -39t32 -33q-35 0 -59.5 29t-33 61 t-8.5 51q0 54 36.5 97t80 55t68.5 12q71 0 130.5 -59.5t59.5 -157.5q0 -24 -1.5 -36t-7.5 -37q-16 -69 -55 -114t-112.5 -82.5t-140.5 -37.5q-53 0 -121 28.5t-107.5 71t-53 94t-17.5 96t-4 85.5q0 64 2.5 105t6.5 74l-180 -1v-51.5t1 -54.5q0 -73 -4 -126t-20.5 -124.5 t-55.5 -119.5t-81 -55t-60 -7q-82 0 -125.5 48t-55 81t-11.5 72zM408 812q0 -66 1.5 -124.5t2.5 -112.5h175l1 480q0 47 -29.5 73t-73.5 26q-45 0 -61 -95t-16 -247z" />
<glyph unicode="B" horiz-adv-x="1097" d="M10 184q0 45 28 88.5t72 43.5q16 0 35 -8.5t31 -28t12 -43.5q0 -14 -5 -26t-35 -41.5t-30 -46.5t15.5 -45t44 -41t65.5 -13q25 0 70.5 8.5t92 50t46.5 78.5q0 71 -14.5 244t-14.5 231q0 163 42 280t158 195q-42 -65 -58.5 -146t-16.5 -186q0 -54 6.5 -178t6.5 -159 q0 -90 -12 -156t-49 -128t-118 -109.5t-182 -47.5q-67 0 -116.5 34.5t-61.5 80t-12 69.5zM39 724q0 65 27 123.5t95 146.5t191.5 149.5t254.5 61.5q69 0 133.5 -17.5t122.5 -55.5q120 -94 120 -245q0 -51 -16 -106.5t-40.5 -91t-63.5 -54.5q101 -75 134 -119t49 -98 q14 -51 14 -96q0 -77 -35.5 -144t-101 -123.5t-147.5 -56.5q-46 0 -85 17.5t-59 50.5t-20 70q0 40 18 63.5t36 34.5t39 11q16 0 41.5 -16t25.5 -58q0 -11 -2.5 -20t-7.5 -17t-28.5 -26t-23.5 -33q0 -8 12.5 -35t66.5 -27q28 0 73.5 32t77.5 97t32 144q0 90 -38.5 178 t-54.5 115.5t-62 38.5q-37 -25 -67.5 -38t-47.5 -13q-20 0 -25.5 11.5t-5.5 19.5q0 18 17 33.5t37 15.5q11 0 37.5 -3.5t39.5 -3.5q28 0 48 12t31 46q7 42 10 67.5t3 56.5q0 65 -18 119t-67 109.5t-119.5 81.5t-150.5 26q-71 0 -165.5 -28t-189 -135t-94.5 -223 q0 -65 20.5 -110.5t50 -51.5t47.5 -6q83 0 105.5 54.5t27 99t7.5 83.5h16q-18 -125 -42 -193.5t-72.5 -92t-72.5 -23.5q-39 0 -73 26t-49.5 72.5t-15.5 93.5z" />
<glyph unicode="C" horiz-adv-x="924" d="M-1 482q0 122 34 244q46 125 109 231t155.5 177t213.5 71q104 0 179 -37t118 -116t43 -146q0 -58 -32 -139.5t-93 -140.5t-141 -59q-22 0 -54 5.5t-64 26t-47.5 53t-21 55.5t-5.5 47q0 54 23.5 109.5t60.5 109.5h23q-24 -47 -39.5 -89t-15.5 -80q0 -34 16.5 -71.5 t39.5 -61.5t54.5 -34.5t52.5 -10.5q49 0 91.5 33.5t71.5 90.5t29 115q0 55 -23.5 106.5t-70 101t-102 77.5t-112.5 28q-53 0 -153 -46.5t-163.5 -188.5t-63.5 -323q0 -40 3.5 -85.5t17 -134t60 -174t133 -124t166.5 -38.5q61 0 117.5 17.5t106.5 54.5t74 74.5t62 112.5 q10 -5 14.5 -12t4.5 -15t-3 -15.5t-11 -21.5q-63 -120 -171 -189.5t-250 -69.5q-106 0 -183 27.5t-138 96.5t-88.5 161.5t-27.5 196.5z" />
<glyph unicode="D" horiz-adv-x="1103" d="M-5 726q0 112 57.5 212t139 161t154.5 86t153 25q61 0 151 -22.5t158 -72t158.5 -189t90.5 -342.5q-1 -147 -67 -283q-48 -99 -118 -164t-128.5 -95.5t-80.5 -35.5t-41 -5q-45 0 -141.5 35.5t-122.5 35.5q-23 -22 -38.5 -32.5t-55 -25t-103.5 -14.5q-55 0 -96 15 t-49.5 35.5t-8.5 36.5q0 37 38 69.5t71 39t64 6.5q58 0 133.5 -19.5t139.5 -35.5q43 35 56 55t13 53q0 69 -22 240t-22 234q0 110 29 198.5t105 162.5q-94 54 -201 54q-70 0 -132.5 -22t-122.5 -75t-92.5 -124.5t-32.5 -150.5q0 -53 13.5 -101.5t41.5 -77t65 -43t61 -14.5 q46 0 82 31t47.5 61.5t11.5 66.5q0 34 -3.5 54.5t-29.5 117.5h23q23 -108 27.5 -132.5t4.5 -55.5q0 -47 -12 -84t-43 -71.5t-62.5 -53.5t-67.5 -19q-24 0 -63.5 15t-68.5 50.5t-42.5 78.5t-17 70.5t-3.5 60.5zM69 100q0 -13 10 -24t27.5 -24t37 -20t39.5 -7q40 0 77.5 16.5 t71.5 41.5q-7 13 -22 18.5t-41 16t-65.5 28t-67.5 17.5q-41 0 -54 -25.5t-13 -37.5zM487 135q39 -18 87.5 -35.5t100.5 -17.5q12 1 18 1q90 10 150 58t108 137q28 52 41.5 106.5t13.5 108.5q0 86 -27.5 169.5t-79.5 170t-119 153.5t-146 91q-33 -41 -48.5 -91t-15.5 -103 q0 -65 35.5 -218.5t35.5 -209.5q-8 -93 -54 -183.5t-100 -136.5z" />
<glyph unicode="E" horiz-adv-x="775" d="M-5 337q0 99 55.5 186t154.5 153q-64 60 -101 122t-37 132q0 36 21.5 101.5t96.5 114t138.5 54.5t88.5 6q95 0 182 -56.5t87 -155.5q0 -37 -19 -78t-57.5 -60t-94.5 -19q-19 0 -44 2t-58 7q80 7 122.5 34t56 61t13.5 59q0 34 -15 65t-41 66.5t-50 46.5t-58 11 q-16 0 -37.5 -2t-63 -8t-76 -37.5t-67.5 -94.5t-33 -139q0 -116 86 -182q18 0 56.5 8.5t58.5 8.5q29 0 56 -10.5t47 -28t20 -25.5q0 -14 -18.5 -28t-39 -26.5t-50.5 -12.5q-34 0 -64 11.5t-85 36.5q-27 -23 -40.5 -39t-31 -49t-28 -79t-10.5 -91q0 -76 28 -149t78 -131 q45 -41 93.5 -64t103.5 -23q37 0 80 14q60 23 92 60.5t54 90.5t22 96t-17.5 81.5t-50 63t-60 37t-56.5 12.5t-54 -16t-35.5 -40t-10.5 -55q0 -29 6.5 -55t18.5 -51q-31 30 -40.5 49.5t-9.5 53.5q0 58 27.5 99.5t62 49t49.5 10t29 2.5q77 0 124.5 -45.5t61 -83t13.5 -80.5 q0 -24 -2 -38t-9 -44q-14 -61 -59 -110t-110.5 -80t-114.5 -46.5t-100 -15.5q-34 0 -67.5 8.5t-90 38.5t-100.5 78t-60.5 109.5t-16.5 108.5zM286 696q0 -14 25 -29.5t41 -15.5q8 0 12 2q25 6 34.5 10.5t9.5 12.5q0 17 -13.5 23.5t-39.5 6.5q-16 0 -35.5 -3t-33.5 -7z" />
<glyph unicode="F" horiz-adv-x="920" d="M-10 229q0 46 18.5 78t41.5 38.5t39 6.5q28 0 49 -14.5t29.5 -33t8.5 -33.5q0 -27 -41.5 -78t-41.5 -64q0 -22 51 -62t143 -40q75 0 145 43q82 72 111 154.5t29 192.5q0 40 -6 130t-6 123q0 98 23 176.5t88 148.5q-7 -54 -7 -108q0 -70 16 -220.5t16 -196.5 q0 -123 -41.5 -217.5t-152.5 -171.5q-69 -41 -136 -61t-154 -20q-77 6 -132.5 44.5t-72.5 93t-17 91.5zM55 791q0 65 31 131t95.5 138t165.5 107t226 35q60 0 123.5 -6.5t132.5 -19.5q17 -4 40 12.5t36 16.5q-19 -51 -79.5 -93.5t-119.5 -63.5q-67 22 -136.5 35.5 t-130.5 13.5q-67 0 -130 -16t-112.5 -46t-78 -84.5t-28.5 -114.5q0 -40 22 -88.5t49 -78t74 -29.5q59 0 101.5 31t61.5 86q14 37 26 73.5t21 71.5h6q-12 -107 -60.5 -201t-102 -105.5t-68.5 -11.5q-40 0 -68 20t-62.5 68t-34.5 119zM702 661q14 16 40.5 31t46.5 15 q4 0 11 -2q10 -8 10 -38q0 -16 -1.5 -32.5t-2.5 -32.5q0 -22 5 -32.5t18 -10.5q17 0 25.5 20.5t15.5 43.5q-7 -52 -18.5 -72.5t-34.5 -32.5q-10 -4 -16 -4q-18 0 -30.5 18.5t-20.5 36.5t-10 55t-38 37z" />
<glyph unicode="G" horiz-adv-x="946" d="M4 389q0 223 87 403.5t217.5 271.5t199 120t137.5 29q47 0 88.5 -16t83.5 -54t63 -92t21 -116q0 -46 -24.5 -167.5t-130.5 -168.5t-139 -47q-46 0 -87 25t-64.5 63.5t-23.5 84.5q0 63 33.5 120t75.5 71q-22 -16 -35 -50t-13 -75q0 -55 25 -98.5t63 -71t79 -27.5 q27 0 65.5 18.5t76.5 89.5t42.5 119.5t4.5 57v12.5q0 86 -45.5 150t-94.5 86.5t-67.5 27.5t-46.5 5q-82 0 -173.5 -46.5t-147 -123.5t-96.5 -213.5t-41 -277.5q0 -93 17 -178t54 -166q35 -54 88 -80t117 -26q48 0 94 15q110 29 188 165q47 92 69 131q-6 -46 -12.5 -120 t-6.5 -122q0 -61 8 -107q65 19 117 93l82 130q-7 -60 -63.5 -144t-131.5 -113q0 -222 -67.5 -393.5t-178 -238.5t-159.5 -67q-57 0 -93.5 31.5t-49.5 62t-13 65.5q0 51 42.5 142.5t134 189.5t247.5 184q4 18 12.5 83t22.5 109q-59 -66 -148 -106.5t-182 -40.5q-40 0 -67 4.5 t-96 35.5t-113.5 128t-44.5 223zM294 -518q0 -16 2.5 -43t36.5 -65t74 -38q18 0 79 28.5t99 126.5t38 234q0 47 -3 119t-3 74q-125 -59 -224 -185t-99 -251z" />
<glyph unicode="H" horiz-adv-x="1403" d="M-7 194q0 42 15 73t41 46t46 15q27 0 49.5 -16t31 -35t8.5 -30q0 -18 -35 -53.5t-35 -56.5q0 -12 12.5 -39t49.5 -49t77 -22q34 0 57 13q102 76 138.5 188.5t36.5 264.5q0 54 -4.5 159t-4.5 154q0 117 -31.5 205t-93 126t-100.5 38q-28 0 -55 -11t-87 -57.5t-60 -152.5 q0 -35 15.5 -73.5t38 -64t52 -31.5t45.5 -6q69 0 90.5 46t29.5 92q18 -28 19 -59q0 -37 -23 -80q-22 -45 -60 -70.5t-84 -25.5q-31 0 -68.5 18.5t-59 65t-26 90t-5 55t-0.5 18.5q0 51 16 92.5t53.5 86.5t79.5 68.5t76.5 26.5t44.5 3h16q108 0 188 -87.5t95.5 -215 t27.5 -246.5l194 1q0 130 21.5 233.5t88.5 181t101 105t96 27.5q69 0 117 -26t63.5 -58.5t33 -56.5t17.5 -36q0 -14 -12.5 -26t-34.5 -20.5t-29 -8.5q-27 0 -44.5 45t-33.5 87q-19 31 -47.5 52.5t-57.5 21.5q-23 0 -73.5 -40t-82 -157.5t-31.5 -275.5q0 -59 5 -170t5 -157 q0 -101 44 -184t109.5 -105.5t99.5 -22.5q66 0 132.5 57.5t66.5 144.5q0 37 -16 81.5t-41 75.5t-59 40t-52 9q-55 0 -88 -29.5t-46 -49.5t-22 -38q-8 17 -9 41q0 29 16 61.5t41 56.5t51.5 34t59.5 10q39 0 85.5 -16t75.5 -57t29 -92q2 -17 3.5 -31t1.5 -34q0 -47 -11.5 -89 t-49 -100.5t-98 -96t-144.5 -37.5q-82 0 -142 43.5t-99 117.5q-25 57 -34.5 123t-9.5 148q0 47 1 94t3 95h-200q0 -143 -16.5 -250t-72 -199.5t-132 -127.5t-106.5 -44t-65 -9q-45 0 -98.5 24.5t-86.5 57.5t-33 88q-1 8 -1 25z" />
<glyph unicode="I" horiz-adv-x="637" d="M-4 220q0 37 20.5 79.5t77.5 42.5q13 0 33.5 -7t34 -37.5t13.5 -64.5q0 -46 -20.5 -43.5t-31.5 -16t-11 -44.5q0 -27 15.5 -51.5t46 -40t63.5 -15.5q36 0 80 20.5t74.5 53.5t41 74t14.5 74t4 61q0 72 -35 241.5t-35 228.5q0 64 16.5 121.5t55.5 111.5h-6q-43 0 -121 52 q-82 56 -118 56q-19 0 -32 -3t-44 -18.5t-59 -77.5q-28 -78 -43 -115q-2 19 -2 30q0 81 56.5 150.5t112 92t76.5 22.5q55 0 119.5 -66t88.5 -82q35 60 71 103t82 56q-13 -59 -57.5 -118.5t-100.5 -73.5q0 -84 17 -189t34.5 -213.5t17.5 -185.5q0 -139 -52 -242.5 t-187 -175.5q-43 -17 -92 -17q-46 0 -86 16t-67 53t-46 78t-19 80z" />
<glyph unicode="J" horiz-adv-x="624" d="M-1 943q0 75 30 135t70 88.5t74 34.5t53 6q48 0 89.5 -27t68.5 -74q28 -40 57 -80q20 45 41 91q39 70 110 87q0 -78 -42 -122t-105 -97q-11 -78 -17 -163.5t-6 -173.5q0 -120 10 -220t33 -197l165 144l10 -10l-168 -164q13 -81 21 -149.5t8 -139.5q0 -139 -39 -249 t-100.5 -163.5t-85 -62t-51.5 -8.5q-35 0 -71 15t-48.5 44.5t-16 64t-4.5 47t-1 19.5q0 96 37 179t77.5 134.5t146.5 173.5q-12 64 -17 124t-5 125q0 153 27.5 307t80.5 334q-7 -1 -20 -1q-52 0 -143.5 62.5t-131.5 62.5q-31 0 -58 -22.5t-46.5 -68t-19.5 -80.5 q0 -55 33 -101t68.5 -55.5t47.5 -9.5q40 0 77.5 29.5t44.5 63.5q0 -60 -20 -105.5t-51 -55t-51 -9.5q-43 0 -79 29.5t-53 74.5q-30 66 -30 133zM175 -436q0 -33 24 -64t52 -31q11 0 51.5 27t71 95.5t30.5 154.5q0 72 -18 161t-34 169q-98 -98 -137.5 -220t-39.5 -292z M492 1051q27 22 49.5 57.5t27.5 63.5q-28 -17 -52.5 -56t-24.5 -65z" />
<glyph unicode="K" horiz-adv-x="1216" d="M-7 922q0 65 29.5 118.5t97 108.5t140.5 55q42 0 138.5 -45t130.5 -215l38 -306q45 2 90 7q57 8 71 39q13 43 15.5 188t38.5 227.5t105.5 95t89 15t37.5 2.5q45 0 78.5 -12.5t64 -44.5t48 -70t17.5 -77q-1 -49 -32 -91q-23 -30 -50.5 -47.5t-58.5 -17.5q-14 0 -64 12.5 t-50 98.5v16t5 26q5 -41 34.5 -57t48.5 -16q34 0 64.5 26.5t37.5 52t7 38.5q0 45 -29.5 80.5t-59 46.5t-46.5 13t-34 2q-37 0 -66 -10t-33 -27q-27 -34 -35.5 -75t-8.5 -92q0 -27 3.5 -80t4.5 -78q0 -65 -20 -112.5t-74 -81.5q114 -52 134 -216q8 -147 18 -293 q5 -29 32.5 -49t60.5 -20t62 25.5t49 67.5t25 87q5 -14 5 -33q0 -41 -26 -84t-62 -67t-62.5 -35t-54.5 -11q-17 0 -28.5 3t-51 25.5t-59 83.5t-19.5 154v47.5t1 49.5q0 84 -16 139.5t-68 96.5q-16 6 -28.5 7t-31.5 1q-20 0 -40.5 -1t-39.5 -2q0 -182 -47.5 -326t-171.5 -236 q-39 -24 -82 -39.5t-85 -15.5q-31 0 -58.5 10t-50.5 33q-34 28 -55.5 65t-21.5 73q0 33 19.5 62t41.5 48.5t45 19.5q11 0 27 -9.5t25 -26t9 -36.5t-10 -64t-10 -59q0 -29 17.5 -50t47 -29t42.5 -8q46 0 87 34.5t63 79.5q29 82 44 181t15 196q0 128 -22 258t-60 250 q-19 46 -56 83.5t-79 37.5q-17 4 -33 4q-34 0 -65 -17.5t-57.5 -43t-37.5 -56t-11 -63.5t17.5 -76.5t28 -62t39 -29t48 -15.5t38.5 -5q40 0 64 28.5t24 98.5q14 -20 15 -48q0 -25 -13.5 -51t-50 -64.5t-99.5 -38.5q-7 0 -44.5 5t-66.5 49t-36 92t-7 72z" />
<glyph unicode="L" horiz-adv-x="1023" d="M-7 113q0 24 24 56t76.5 51.5t123.5 19.5q34 0 52.5 -2t59 -8t73.5 -18t63 -23q19 39 28 79t9 81q0 73 -28 162t-57.5 181t-29.5 157q0 61 18 113t64.5 110t126.5 97t162 39q52 0 95 -18.5t86 -73.5t43 -140q0 -46 -16.5 -93t-44.5 -88.5t-50.5 -60t-127.5 -82.5 q72 65 113.5 128.5t41.5 149.5q0 88 -40.5 156.5t-90.5 79.5t-77 11q-51 0 -93 -23t-70.5 -59t-39 -55.5t-13.5 -37t-3 -27v-15.5q0 -76 35 -173t70 -193t35 -166q0 -69 -27 -126t-96 -113q73 -40 151 -66.5t151 -26.5q52 0 96 15t74 43t54 71t40 59q-29 -104 -115 -187.5 t-201 -83.5q-90 0 -161.5 18t-168.5 57q-59 -40 -121 -66t-122 -26q-34 0 -62 7.5t-55.5 24.5t-41 39t-13.5 46zM36 120q0 -54 34.5 -72.5t58 -23.5t51.5 -5q54 0 108 20t94 54q-12 7 -97 60t-143 53q-27 0 -45.5 -7t-39.5 -28.5t-21 -50.5z" />
<glyph unicode="M" horiz-adv-x="1569" d="M-6 881q0 24 4 54t12 56q17 75 77 131.5t108 67.5t62.5 12.5t31.5 1.5q75 0 132.5 -50t70.5 -93.5t32 -167.5q82 180 114.5 226.5t75.5 63.5t59 17q35 0 60.5 -28.5t52 -71.5t30 -101.5t4.5 -67.5q37 75 75 151q51 87 100 102.5t66 15.5q42 0 74 -28.5t32 -70.5 q0 -23 13.5 -55t15.5 -49q37 13 102.5 102.5t83.5 102t42 12.5q22 0 35 -14.5t13 -39.5q0 -30 -30 -74.5t-91 -81.5t-131 -37q-23 -49 -36 -148t-24 -189q-10 -54 -15 -107t-5 -97q0 -107 30.5 -190t77 -124t71.5 -41q54 0 105 50.5t51 129.5q6 -20 6 -38q0 -40 -25.5 -77 t-64 -71.5t-79.5 -49.5t-82 -15q-46 0 -91 42t-75 123.5t-30 175.5q0 134 54 305t103 321q-19 -2 -28 -2q-37 0 -65 19.5t-28 53.5q0 41 -15 70t-60 29q-46 0 -67.5 -38t-67.5 -140t-46 -172q0 -135 -4 -271.5t-8 -290.5t-4 -225q-5 0 -22.5 -1t-31.5 -1q-22 0 -39 1t-28 6 v1047q0 34 -22.5 63t-50.5 29q-8 0 -32.5 -9.5t-85.5 -149t-61 -157.5l-2 -828l-110 1l1 405q0 152 -1.5 246.5t-6.5 187t-13.5 173t-42 110t-65 38t-54.5 8.5q-46 0 -83.5 -23t-66.5 -55.5t-39.5 -59.5t-10.5 -59q0 -39 15 -79t42.5 -57.5t62.5 -17.5q31 0 63 15.5t47 40.5 t25 63q0 -54 -19 -95t-54 -65t-58.5 -33t-47.5 -9q-18 0 -45.5 5.5t-47.5 44t-20 96.5zM1360 1001q53 12 100 42t47 63q0 14 -11 28q-7 7 -14 7q-24 0 -58 -47.5t-64 -92.5z" />
<glyph unicode="N" horiz-adv-x="1467" d="M-7 837q0 28 4.5 56.5t20 86.5t58.5 111t110.5 78.5t120.5 25.5q87 0 143.5 -42.5t79 -75.5t40.5 -63q47 88 91 139t106 51q17 0 54 -10.5t67 -117t97 -106.5q45 78 82.5 125t77.5 71.5t63.5 38t41.5 13.5q17 0 27 -13.5t10 -27.5q0 -16 -8.5 -31.5t-40 -60.5t-93 -88.5 t-154.5 -66.5q-23 -63 -38 -186.5t-21.5 -163t-9 -66.5t-2.5 -62q0 -90 29.5 -168t85 -124t93 -63t79.5 -17q36 0 83 21t72 70t30 94t5 52.5v12.5q0 73 -42 128.5t-93.5 66t-76.5 10.5q-61 0 -100 -45q-23 -29 -32 -60.5t-9 -72.5q-8 30 -8 60q0 75 64.5 133t134.5 58 q36 0 80 -18t73 -49t39 -81t10 -99q0 -116 -61.5 -203t-140 -123t-128.5 -36q-48 0 -92.5 20t-91.5 70.5t-73.5 127.5t-26.5 169q0 87 21.5 180t51.5 173.5t77 190.5q-8 -1 -25 -1q-60 0 -109.5 33.5t-71.5 90.5q-8 28 -16 57q-12 30 -35 30q-49 0 -82 -47q-28 -46 -56 -91 q20 -84 32.5 -170.5t12.5 -171.5q0 -130 -29 -245t-90.5 -214.5t-131.5 -150t-158 -50.5q-53 0 -95 23t-64 67t-22 93q0 47 20 84t49 47.5t43 10.5q45 0 65 -27t20 -46t-41 -64t-41 -68q0 -8 2 -16t17 -28.5t44.5 -35.5t60.5 -15q30 0 58 15q105 80 150.5 190t45.5 245 q0 104 -22 218t-50.5 216t-59 141t-79.5 57.5t-89 18.5q-83 0 -128.5 -48.5t-57.5 -80.5t-12 -71q0 -49 18 -98t47 -76t59.5 -33t46.5 -6q46 0 83 25.5t51.5 61.5t14.5 60t-6 42t-22 51q24 -17 37 -48.5t13 -70.5q0 -53 -28.5 -116t-77 -81t-74.5 -18q-34 0 -65.5 16.5 t-66.5 47.5t-50 69t-15 85zM1017 960q116 47 153 81q27 30 46 50t19 37q0 13 -7.5 24.5t-20.5 12.5h-5q-32 0 -83 -54q-55 -59 -102 -151z" />
<glyph unicode="O" horiz-adv-x="1036" d="M-6 390q0 64 24.5 134t65.5 120t97 80q-92 -100 -92 -234q0 -92 49 -197t136 -170t208 -65q112 0 193.5 47.5t161.5 174.5t80 293q0 187 -103.5 327t-175 191.5t-132.5 58.5t-77 7q-58 0 -104.5 -33t-65 -70.5t-25 -59.5t-6.5 -51q0 -34 10.5 -65t33 -67t52.5 -58t66 -22 q24 0 51.5 13.5t48 44t20.5 64.5q0 33 -21 58q35 -23 35 -73q0 -51 -33 -101t-70 -62t-66 -12q-46 0 -86.5 25t-69.5 68t-29 93q0 36 13 73.5t50 110t112 124t169 51.5q24 0 99.5 -10.5t160 -74t150.5 -183.5q37 -67 56.5 -139t19.5 -137q0 -95 -32.5 -186t-115 -211.5 t-193.5 -191.5t-266 -71q-83 0 -144.5 25t-158 116t-96.5 245z" />
<glyph unicode="P" horiz-adv-x="1195" d="M-6 90q0 31 35 76t112.5 74.5t171.5 29.5q131 0 253 -52q11 27 16.5 59.5t5.5 65.5q0 52 -19.5 166.5t-19.5 177.5q0 48 8 90.5t35.5 104.5t71 122t108.5 125q-19 10 -43.5 14.5t-46.5 4.5q-55 0 -112 -21t-134 -52.5t-144 -81.5t-119 -126q-18 -41 -27.5 -75.5 t-9.5 -66.5q0 -46 23 -93q17 -30 46 -46.5t60 -16.5q35 0 64 21q82 46 112 125t48 208q5 -23 5 -50q0 -66 -30 -131t-82 -140q-40 -40 -84 -65.5t-88 -25.5q-31 0 -67 19t-57 58.5t-21 86.5t55 172t261.5 239t447.5 114q23 0 35 -0.5t69.5 -6.5t119 -51.5t79 -94t22 -71 t4.5 -47.5q0 -84 -71 -171t-183 -87q-33 0 -63 9.5t-47.5 39t-17.5 68.5q0 40 18 72.5t30.5 45.5t34.5 13q49 0 64 -29t15 -46q0 -30 -30.5 -69t-30.5 -46q0 -20 29 -24t43 -4q45 0 80 25t47 67t12 85q0 47 -16.5 85t-52 70.5t-69.5 47.5t-145 44q-78 -60 -106.5 -143 t-28.5 -194q0 -53 6.5 -150t6.5 -131q0 -95 -19 -166t-72 -131q86 -31 176 -64.5t155 -70.5q4 5 37.5 40.5t50.5 76.5q2 -4 3.5 -9.5t1.5 -13.5q0 -11 -16 -33t-53 -55q-39 -42 -66 -68t-55 -26q-13 0 -27 7l-271 134q-73 -64 -157.5 -101t-171.5 -37q-39 0 -80.5 8.5 t-70 21.5t-41.5 28t-13 42zM78 106q0 -53 53 -74t128 -21q67 0 124 35t111 93q-69 46 -129.5 71t-129.5 25q-48 0 -88 -11.5t-54.5 -42t-14.5 -75.5z" />
<glyph unicode="Q" horiz-adv-x="1074" d="M-8 111q0 10 14 41.5t60.5 53.5t106.5 22q43 0 87.5 -8.5t91 -20t97.5 -28.5t70 -22q147 108 232 260t85 326q0 40 -3.5 76.5t-18.5 103t-64 125.5t-113 78.5t-109 19.5q-104 0 -173 -55t-91 -103t-22 -105q0 -33 16.5 -114.5t102.5 -105.5t117 -24q40 0 73 15t53.5 40 t25 44t4.5 46q0 10 -1 19.5t-1 18.5h20q0 -14 1 -47t1 -35q0 -46 -8.5 -77t-61 -83.5t-152.5 -52.5q-61 0 -122 30t-92 91.5t-31 140.5q0 60 19 134.5t74.5 131.5t119 90t105.5 42.5t87 9.5q104 0 194 -52t126 -122.5t47 -118.5t11 -97q0 -140 -80 -278t-156.5 -211.5 t-115.5 -105t-76 -62.5q86 -47 157.5 -74t144.5 -27q35 0 65.5 6t69.5 24t68.5 43t41.5 57q-23 -67 -68.5 -93t-104.5 -54t-107 -38t-101 -10q-78 0 -154.5 23t-139.5 61q-24 -12 -45 -22t-47 -20.5t-58.5 -16t-65.5 -5.5q-40 1 -68 8q-31 8 -52 16t-41 21t-32.5 32 t-12.5 38zM11 112q0 -37 30 -56.5t71 -32t77 -12.5q68 0 128 19q22 6 41.5 15.5t37.5 24.5q-12 4 -118 50t-164 46q-57 0 -101 -31q-2 -8 -2 -23z" />
<glyph unicode="R" horiz-adv-x="1114" d="M2 194q0 35 20.5 70t67.5 35q24 0 41.5 -12t31.5 -30t14 -35q0 -14 -15.5 -28t-26 -33.5t-10.5 -36.5q0 -22 12 -40t44 -41t84 -23q43 0 85 45t64.5 116.5t22.5 159.5q0 55 -13 172t-13 177q0 75 13 137t56 138t75 121t79 67q-57 28 -117 28q-48 0 -105 -19.5t-149 -76 t-130.5 -130.5t-38.5 -172q0 -30 1 -45.5t9 -61.5t45.5 -58.5t58.5 -12.5q46 0 83.5 33.5t52 84t14.5 93.5q0 25 -4 57q16 -35 16 -83q0 -42 -12.5 -81t-41 -73.5t-62.5 -57.5t-70 -23q-27 0 -61 20.5t-52.5 62t-18.5 92.5q0 41 22 144t144.5 200.5t226 115t124 20t42.5 2.5 q119 0 198.5 -62.5t103 -114t23.5 -123.5q0 -99 -50 -171t-140 -142q87 -25 115 -81.5t28 -151.5q0 -18 -1 -59t-1 -62q0 -66 9.5 -115.5t28.5 -78t36 -28.5q35 0 79 45q41 42 41 63l-1 37q2 14 1 22q0 11 -2 18h20q-7 -69 -24 -117t-63 -72t-105 -24q-55 0 -93.5 23.5 t-38.5 69.5q0 95 -9 262.5t-9 175.5q0 25 -19 35.5t-51 10.5q-29 0 -63 -5.5t-63 -9.5q0 -70 -3 -113t-16.5 -149.5t-92 -198.5t-198.5 -92q-78 0 -126.5 15.5t-85.5 68t-37 106.5zM539 838q0 -60 7 -130t14 -135q54 0 98 18.5t88 59.5t64 90t20 110q0 32 -6 78 q-24 163 -167 213q-65 -53 -91.5 -129.5t-26.5 -174.5z" />
<glyph unicode="S" horiz-adv-x="811" d="M0 254q0 43 19.5 91.5t52 79t64 39t45.5 8.5q40 0 72.5 -27t44.5 -67q-27 7 -37 9.5t-27 2.5q-27 0 -56.5 -14.5t-48 -48t-18.5 -73.5q0 -27 21 -81t105.5 -95.5t191.5 -41.5q82 0 138 38.5t80 94t24 89.5q0 45 -24 90.5t-79 101t-225.5 137.5t-247.5 141t-77 173 q0 54 23 122q39 95 123.5 138.5t201.5 43.5q134 0 232 -45.5t112.5 -111t14.5 -88.5q0 -52 -26.5 -94.5t-61.5 -54t-47 -11.5q-19 0 -37.5 6t-33.5 11q39 22 62 43.5t32 46.5t11 41.5t2 32.5q0 76 -58 119t-112 66t-105 23t-107.5 -25.5t-90 -56.5t-41 -68t-7.5 -61 q0 -77 68.5 -139.5t244.5 -144t261 -147.5t85 -188q0 -49 -16 -107q-31 -110 -116.5 -168.5t-169 -70t-97 -12t-22.5 -0.5q-77 0 -143 26.5t-133 83t-67 143.5z" />
<glyph unicode="T" horiz-adv-x="886" d="M-4 882q0 46 17.5 102t63 97.5t110.5 70.5q23 12 51.5 18t51.5 6q49 0 129.5 -25.5t96.5 -27.5q63 48 117.5 62t79 17.5t42.5 3.5q40 0 66 -13.5t32 -46.5q1 -5 1 -15q0 -39 -35 -65t-77 -39t-80 -18t-69 -5q-47 0 -84.5 7t-83.5 20q-70 -69 -113 -150t-93 -203 q43 -14 74 -14q36 0 72 15q29 16 56 29.5t50.5 40t62.5 77.5q-25 -77 -100.5 -129t-167.5 -52q-13 0 -28 1t-30 5q-27 -51 -42 -109t-15 -116q0 -71 22.5 -132t75.5 -115t118 -86t132 -32q34 0 65.5 8t85.5 36t98.5 97.5t44.5 139.5q0 73 -39.5 125.5t-90 66.5t-82.5 14 q-112 0 -143 -57t-31 -83q0 -17 8.5 -51.5t8.5 -48.5q-19 28 -32 65t-13 74q0 45 20.5 90.5t54.5 75t73 35t48 5.5q66 0 119 -42t88.5 -108t35.5 -128q0 -55 -21.5 -107t-70 -122t-125.5 -109t-165 -39q-54 0 -112 14q-82 16 -147 68.5t-93.5 115t-39.5 117t-11 105.5 q0 71 18.5 139.5t50.5 126.5q-52 33 -79 84.5t-27 113.5zM14 891q0 -52 29 -98.5t77 -82.5q30 65 72.5 118t81 89.5t126.5 114.5q-47 16 -104 23.5t-120 7.5q-45 0 -86 -30.5t-54.5 -61t-17.5 -48t-4 -32.5zM536 1116q70 -27 108.5 -41.5t85.5 -14.5h15q10 0 27.5 2.5 t33.5 22t16 38.5q-1 12 -8 23q-14 20 -36.5 28.5t-49.5 8.5q-46 0 -102 -22.5t-90 -44.5z" />
<glyph unicode="U" horiz-adv-x="1467" d="M-8 877q0 40 15 79t53 97t96 93.5t138 35.5q90 0 152 -32.5t91.5 -109.5t42.5 -157.5t13 -166.5q0 -83 -19.5 -283t-19.5 -287q0 -40 15 -64t44 -24q7 0 46 12t70.5 59t88.5 155q0 264 13 420.5t82 298t149.5 173t94.5 31.5q34 0 63.5 -26.5t29.5 -55.5q0 -130 -40 -240 t-108 -209.5t-168 -212.5q0 -161 24.5 -259.5t101.5 -130.5t116 -32q35 0 107 26t90 85.5t22 82.5t4 37q0 83 -43.5 121.5t-71 51.5t-55.5 13t-66.5 -22.5t-61.5 -55.5t-23 -81q0 -8 1.5 -18t1.5 -16h-11q-4 28 -4 48q0 58 38 108.5t81 77t92 26.5q29 0 64 -13.5t63.5 -51 t38.5 -82.5q8 -37 9 -73q0 -58 -25.5 -108.5t-99 -125.5t-198.5 -75q-27 0 -40 1.5t-72.5 14t-116 78t-74.5 158.5q-36 -81 -81 -154.5t-104 -81.5t-71 -8q-49 0 -88.5 31t-46 92t-6.5 133q0 75 14.5 262.5t14.5 254.5q0 75 -8 145.5t-26 140.5q-11 34 -31.5 48.5t-48 26 t-47.5 15.5t-34 4q-40 0 -74.5 -16.5t-73.5 -51.5t-62.5 -78.5t-23.5 -90.5q0 -42 23 -84.5t59.5 -68t76.5 -25.5q43 0 75 26t43 55t11 99q8 -31 12.5 -55t4.5 -47q0 -34 -11.5 -61.5t-49 -61.5t-97.5 -34q-51 0 -96 33t-66.5 84t-21.5 97zM935 499q110 124 179 275.5 t69 300.5q0 28 -21 53.5t-49 25.5q-17 0 -32 -12q-92 -92 -119 -224.5t-27 -313.5v-105z" />
<glyph unicode="V" horiz-adv-x="1061" d="M1 944q0 49 42.5 110.5t85.5 112.5q49 -23 87 -39t67 -16q40 45 62 67t53 22q18 0 36 -16t18 -45q0 -13 -3 -24.5t-28 -55.5t-110 -44q-35 0 -66 15q-19 -37 -29 -81.5t-10 -90.5q0 -87 29.5 -175t75.5 -157.5t107 -127t122 -104.5t64 -47q133 119 211 262.5t78 300.5 q0 71 -18 147q-14 48 -47.5 91.5t-71 54t-60.5 10.5q-100 0 -120 -139q-2 19 -3 29q0 70 43.5 131.5t79 65t51.5 3.5q51 0 93 -23t91.5 -70.5t73 -106t23.5 -127.5q0 -48 -10.5 -96t-32.5 -102q-41 -101 -96 -176t-125 -141t-135 -126q20 -18 31.5 -53.5t11.5 -76.5 q0 -36 -12 -74q-11 -32 -48 -32q-6 0 -13 1q-31 5 -47 28.5t-16 57.5q0 39 11.5 66t20.5 43t22 34q-166 81 -251.5 128.5t-159.5 134t-74 208.5q0 93 33 167t93 163q-33 14 -67 26.5t-53 18.5q-7 -17 -51 -72t-44 -94q-14 13 -15 34zM308 1095q25 -14 51 -14q20 0 34 7.5 t30 21.5q10 10 9 26q0 14 -10 28q-8 12 -19 11h-3q-34 -7 -57 -23t-35 -57zM565 92q0 -40 19.5 -49t25.5 -9q7 0 13 5q25 17 25 59q0 28 -12 60t-30 53q-18 -28 -29.5 -60t-11.5 -59z" />
<glyph unicode="W" horiz-adv-x="1373" d="M-1 1002q10 41 56.5 108.5t57.5 88.5q30 -10 68.5 -40.5t52.5 -38.5q18 35 62.5 69.5t80.5 34.5q25 0 38.5 -18t13.5 -60q0 -11 -3.5 -18t-23.5 -35q-24 -31 -61 -46t-80 -15q-14 0 -31 2t-25 3q-18 -29 -29.5 -48.5t-22 -62t-10.5 -97.5q0 -114 57 -215.5t134 -175.5 t201 -173q7 23 41 58.5t65 60.5q-118 93 -177.5 211.5t-59.5 273.5q0 94 55 192q41 66 60 100q-25 -94 -25 -194q0 -147 52 -278.5t154 -229.5q89 137 119 219.5t30 153.5q0 42 -10 82.5t-33 80.5t-46 81q-36 48 -89 48q-12 0 -26.5 -2t-40.5 -12q64 60 127 60q37 0 72 -19 t77 -60.5t62.5 -93t20.5 -113.5q0 -42 -7 -78t-27.5 -110t-74 -135t-138.5 -129q41 -46 82 -91q45 -45 106 -72q106 108 195.5 270.5t89.5 325.5q0 49 -14 113t-38.5 113.5t-88.5 49.5q-28 0 -60 -12q19 29 36 45t43 16q63 0 108 -19t79.5 -68.5t52.5 -111.5t18 -126 q0 -80 -25 -154t-91.5 -157t-138 -160.5t-152.5 -142.5q20 -13 32.5 -52.5t12.5 -86.5q0 -48 -16 -80t-48 -32q-34 0 -51.5 23.5t-17.5 63.5q0 78 52 156q-80 29 -132 57t-89 69q-27 -8 -61.5 -41.5t-53.5 -69.5q17 -46 30.5 -95t13.5 -85q0 -41 -13.5 -57.5t-24.5 -16.5 q-24 0 -47 30.5t-23 59.5q0 69 5 94.5t36 62.5q-6 4 -159.5 83t-225 150t-76.5 132.5t-5 72.5v17q0 72 26.5 154t99.5 192q-17 14 -41 30.5t-53 34.5zM248 1113q12 -18 38 -30.5t50 -12.5q19 0 31 5.5t26.5 25t14.5 49.5q0 28 -20 40q-7 4 -17 4q-27 0 -63.5 -25t-59.5 -56z M504 134q0 -48 13.5 -65t20 -21.5t11.5 3.5q16 30 16 63q0 28 -10 57t-25 54q-12 -14 -19 -40.5t-7 -50.5zM859 98q0 -40 22 -65q2 -4 7 -4q8 0 22 12q22 18 25 32q4 17 5 22.5t1 20.5q0 35 -12 63.5t-29 45.5q-18 -29 -29.5 -62t-11.5 -65z" />
<glyph unicode="X" horiz-adv-x="1220" d="M2 863q0 123 59 210t137 109.5t121 22.5q96 0 174 -63t136 -181q14 75 49 130.5t82 76.5t75 28.5t52 7.5q46 0 100 -27.5t86 -80.5t32 -112q-1 -11 -1 -17q-27 0 -64.5 -24t-49.5 -24q-16 0 -29 17q7 20 8 39q0 28 -13.5 54t-49.5 63.5t-102 37.5q-42 0 -82 -30.5 t-57 -92.5q-13 -76 -19 -116q0 -53 -4.5 -165.5t-4.5 -156.5q0 -176 38 -298.5t148 -194.5q55 -23 113 -23q42 0 80 14t73 46t53 77.5t18 93.5q0 10 -0.5 19t-5.5 32q-14 48 -36 81t-53 47t-56.5 19.5t-48.5 5.5q-57 0 -94.5 -32.5t-37.5 -103.5q-5 27 -5.5 31.5t-0.5 21.5 q0 29 6 45t26.5 54.5t57.5 58.5t79 20q43 0 96.5 -20t80 -79.5t26.5 -148.5q0 -122 -59 -208t-147.5 -113.5t-149.5 -27.5q-66 0 -120.5 21.5t-98.5 63t-68.5 89.5t-44.5 93q-14 -77 -69 -151t-120 -92t-106 -18q-35 0 -67 10.5t-81.5 54t-49.5 132.5q0 16 2 34t11 41.5 t25 36t36 12.5q41 0 62 -30t21 -60q0 -12 -3.5 -36t-3.5 -36q0 -29 14.5 -48.5t48.5 -29.5t57 -10q58 0 108 35.5t67 85.5q24 108 38 211.5t14 196.5q0 113 -21.5 221.5t-54.5 184t-79.5 100.5t-102.5 25q-48 0 -100.5 -23.5t-84 -68t-31.5 -107.5t28 -108.5t59.5 -52 t39.5 -6.5h17q73 0 109 61q4 -11 4 -23q0 -47 -38.5 -87.5t-93.5 -40.5q-29 0 -69.5 14.5t-62 61.5t-27.5 120z" />
<glyph unicode="Y" horiz-adv-x="1149" d="M-5 882q0 83 46.5 154.5t102 100.5t87.5 39.5t58 10.5q37 0 104 -46.5t107 -146.5t40 -233q0 -83 -26 -284t-26 -271q0 -24 0.5 -53t6 -62t21 -44t36.5 -11q22 0 67 40.5t89 124.5q45 101 70 157q0 49 -0.5 100.5t-0.5 102.5q0 170 12 285t55 212t94.5 126t68.5 29 q31 0 56 -24t32 -58q11 -57 11 -109q0 -92 -27 -173.5t-71.5 -158t-106.5 -164.5q0 -49 9 -164t9 -156t-3 -80q75 78 149 158q-27 -61 -58.5 -105.5t-92.5 -115.5q4 -27 7.5 -66t3.5 -85q0 -134 -38.5 -249t-114.5 -189.5t-117.5 -97.5t-71.5 -23q-31 0 -56 29t-38 67 t-13 79q0 82 52.5 173t105.5 151.5t182 199.5q-8 45 -20.5 135t-14.5 107q-31 -104 -100 -201t-151 -97q-33 0 -76 24.5t-61 73.5t-18 123q0 30 1 60t2 62q0 71 14.5 237t14.5 224q0 82 -10 145t-39 133q-14 24 -46.5 38t-69.5 14q-39 0 -105 -23t-83 -93t-17 -96 q0 -48 19.5 -85t52 -52t58.5 -15q46 0 78.5 36t38.5 98q16 -27 16 -57q0 -29 -11.5 -54t-52 -66.5t-100.5 -41.5q-43 0 -78.5 32t-49 81t-13.5 88zM539 -481q0 -59 28 -113q8 -22 26 -22t48 23.5t63.5 48.5t49 50.5t46.5 101.5q20 51 29 101.5t9 103.5q0 43 -2 67t-12 83 q-90 -101 -179 -204q-106 -134 -106 -240zM883 836q0 -46 6 -144t6 -120q83 107 129.5 211.5t46.5 220.5q0 26 -4 55q-2 31 -25.5 66t-47.5 35q-14 0 -27 -17q-48 -59 -66 -135t-18 -172z" />
<glyph unicode="Z" horiz-adv-x="1048" d="M-11 80q0 29 14 50.5t40 58.5t73 56.5t102 19.5q25 0 56.5 -4t57.5 -12q60 64 95.5 183.5t67.5 236.5q48 147 133 255q-25 12 -150.5 99t-202.5 87q-23 0 -43 -4.5t-52.5 -18.5t-56 -52t-23.5 -83q0 -36 16.5 -75t58.5 -66t90 -27q39 0 66 14.5t44.5 40t37.5 54.5 q0 -55 -25 -106t-68 -70t-75 -19q-59 0 -104 35.5t-60 70t-15 77.5q0 27 5 52t19 78.5t75 100t124.5 61t83.5 14.5q73 0 178.5 -74.5t154.5 -89.5q23 47 56 80t70.5 47t47.5 16.5t25 2.5q11 0 19 -2t22.5 -15.5t14.5 -34.5q0 -16 -9.5 -39t-25.5 -63t-81.5 -75t-130.5 -35 q-33 0 -50 8q-18 -37 -27 -52t-52 -84t-72 -172t-54 -194q-34 -102 -90 -168q11 -6 144 -86t227 -80q25 0 51 5.5t65 22.5t76.5 57t43 79.5t5.5 48.5q0 41 -18.5 72t-66.5 72t-115 41q-36 0 -87 -17.5t-77.5 -47t-26.5 -106.5q-11 35 -11 67q0 61 37.5 111t87.5 69.5 t86 19.5q63 0 115.5 -36t79.5 -99q22 -49 22 -104q0 -87 -48 -164.5t-99.5 -105.5t-124 -52t-110.5 -24q-78 0 -195 72t-158 77q-41 -49 -65.5 -75.5t-60 -42.5t-65.5 -16q-54 0 -73 30t-19 49zM18 82q0 -31 25.5 -42.5t46.5 -11.5q53 0 95 45.5t66 73.5q-29 12 -59.5 19 t-58.5 7q-37 0 -65.5 -15.5t-38 -36.5t-10.5 -27t-1 -12zM737 1007q24 -12 41 -18t32 -6q16 0 39.5 9.5t50 47.5t26.5 67q0 28 -25 29q-5 1 -10 1q-41 -1 -83 -37q-46 -40 -71 -93z" />
<glyph unicode="\" horiz-adv-x="602" d="M24 1228q90 -100 212 -369.5t208 -497t137 -362.5h-114q-41 128 -104 322.5t-169 487.5t-170 419z" />
<glyph unicode="a" horiz-adv-x="661" d="M-1 229q0 122 60 205t198 83q48 0 92 -35.5t71 -58.5q2 18 26.5 33.5t49.5 30.5q-36 -51 -55 -116.5t-19 -137.5q0 -73 23 -138q24 -47 67 -47q11 0 41 13.5t66.5 72.5t52.5 78q-39 -83 -79.5 -147t-137.5 -64q-6 -1 -8 -1q-41 0 -71 25.5t-60 69.5q-35 -46 -79 -72.5 t-94 -26.5q-36 0 -71 18.5t-54 62t-19 152.5zM43 287q0 -54 23.5 -107.5t63 -90t81.5 -36.5q39 0 64 27t33.5 58.5t8.5 73.5q0 17 -0.5 34.5t-0.5 35.5q0 76 -43 128.5t-98 52.5q-22 0 -40.5 -8t-55 -45.5t-36.5 -122.5z" />
<glyph unicode="b" horiz-adv-x="456" d="M1 570q0 193 25 339t67.5 219.5t71 89.5t57.5 16q27 0 47 -14t29 -42q12 -55 12 -114q0 -133 -53 -261t-147 -272v-126q0 -112 4 -197t17 -162q23 -16 49 -16q45 0 83.5 41t43 79.5t7 67t2.5 51.5q0 55 -13.5 89.5t-36.5 40.5t-30 6q-11 0 -24 -1.5t-14 -1.5 q-18 0 -22 12q-2 22 -5 44q0 19 7.5 31.5t26.5 20.5q24 6 43 6q99 -1 138 -102q11 -27 15.5 -54.5t4.5 -55.5q0 -133 -108 -231q-40 -31 -89.5 -52t-98.5 -21q-18 0 -38.5 3t-37.5 18t-17 36q0 71 -8 255t-8 258zM82 884q0 -54 11 -163.5t11 -147.5q43 52 69 105.5t53 131.5 q27 80 27 149q0 33 -6 73t-14 78q-9 37 -25 57q-14 17 -29 17q-3 0 -6 -1q-16 -4 -29 -22.5t-28.5 -60t-24.5 -100.5t-9 -116z" />
<glyph unicode="c" horiz-adv-x="486" d="M5 231q0 88 44.5 157.5t91 102t94.5 32.5q34 0 67 -19.5t57 -55t24 -64.5q0 -22 -14 -35t-46 -13q-31 0 -70 71t-71 71q-23 0 -51 -23q-23 -27 -33.5 -59t-10.5 -68q0 -110 62.5 -186t128.5 -76q20 0 68 11t82.5 52.5t81.5 123.5q-16 -53 -25.5 -73.5t-49 -68.5 t-85.5 -79.5t-110 -31.5q-14 0 -79.5 6.5t-110.5 86t-45 138.5z" />
<glyph unicode="d" horiz-adv-x="510" d="M-48 987q7 46 23.5 70.5t55.5 36.5t73 12q47 0 86.5 -21.5t104 -100.5t114 -218.5t49.5 -283.5q0 -194 -89 -357q-69 -124 -206 -124q-54 0 -93.5 28t-56.5 82t-17 106q0 96 57 173t157 144q-59 -84 -90.5 -146.5t-31.5 -130.5q0 -45 12.5 -84.5t36 -74.5t46.5 -51.5 t46 -16.5q18 0 35 12q58 65 84.5 155.5t26.5 194.5q0 112 -25 219t-64.5 197.5t-88 138.5t-94 57t-54 11t-20.5 2q-40 0 -77 -30z" />
<glyph unicode="e" horiz-adv-x="496" d="M8 216q0 60 23.5 115t63 100t89.5 74t94 29q31 0 53 -14t33.5 -40.5t11.5 -47.5q0 -28 -14.5 -56t-46.5 -66t-93 -56.5t-104 -31.5q0 -34 3 -61.5t16.5 -56t46 -49t71.5 -20.5q29 0 75.5 19t92.5 74.5t87 106.5q-48 -102 -128 -167.5t-190 -65.5q-58 0 -102 26t-63 79.5 t-19 108.5zM118 246q57 20 105 69t60 124q1 4 1 8v5q0 23 -12 35t-32 12q-19 0 -38.5 -11.5t-43.5 -45.5t-32 -74t-8 -98v-24z" />
<glyph unicode="f" horiz-adv-x="349" d="M0 -54q0 226 5.5 436.5t20 387.5t41.5 300q17 53 53.5 95t52 44.5t28.5 2.5q40 0 72 -24.5t38 -63.5q7 -47 7 -92q0 -94 -27.5 -173.5t-79 -164t-99.5 -162.5l164 -2v-42h-181l-2 -1226h-93v131v232.5v320.5zM84 844q0 -49 2.5 -167.5t2.5 -124.5q90 120 127 249t37 282 q-5 31 -19 45t-38 14t-47.5 -14.5t-37 -39.5t-20.5 -88t-7 -156z" />
<glyph unicode="g" horiz-adv-x="596" d="M-7 172q0 43 15.5 121t86.5 158.5t141 80.5q7 0 50.5 -9.5t94.5 -68.5l53 76q-8 -35 -12 -79t-4 -90q0 -54 8 -184t8 -170q55 52 96.5 117.5t74.5 140.5q1 -11 1 -17q0 -82 -76 -167.5t-102 -114.5q0 -180 -10.5 -293t-60.5 -216t-163 -164q-18 -6 -34 -6q-37 0 -66 26 t-36 62q-12 47 -12 94q0 88 38 165.5t95.5 143t143.5 147.5q-5 20 -7.5 51.5t-2.5 54.5v75q-31 -47 -85.5 -81.5t-104.5 -34.5q-34 0 -64.5 20.5t-48 64.5t-17.5 97zM71 237q0 -43 13.5 -78t48 -67t78.5 -32q35 0 57 24t31 54.5t9 71.5q0 40 -7 91t-14 100q-4 29 -28 46 t-57 17q-36 0 -65 -22.5t-42 -65t-18.5 -73.5t-5.5 -66zM129 -578q4 -29 23.5 -50t43.5 -21q13 0 21 6q67 43 90.5 129t23.5 206q0 46 -1 89.5t-2 85.5q-107 -52 -153 -174t-46 -271z" />
<glyph unicode="h" horiz-adv-x="501" d="M12 493q0 169 8.5 303t25.5 235t62.5 154t114.5 53q42 0 73.5 -37.5t36 -81t4.5 -75.5q0 -98 -32 -185t-73.5 -152t-126.5 -183q0 -24 -1.5 -81t-1.5 -61q13 41 55 81.5t72 51t50 10.5q42 0 79 -28.5t59 -67.5q17 -29 25.5 -66t8.5 -73q0 -63 -20.5 -122.5t-52 -100 t-60.5 -61t-63 -20.5q-16 0 -22.5 1.5t-23 10.5t-26.5 29t-10 45q0 16 4.5 35t19 59.5t58.5 75.5t116 65q-30 42 -60 86q-42 50 -85 50h-2q-11 0 -34 -6.5t-39 -28.5t-40 -69l1 -340l-94 1q0 99 -3 276t-3 217zM86 896q0 -64 9.5 -183t9.5 -164q33 71 69.5 151.5t58.5 153 t22 143.5q0 47 -11 90.5t-27 70t-22.5 38.5t-17.5 12q-13 0 -22.5 -15.5t-27 -47t-29.5 -99t-12 -150.5zM245 87q0 -41 15 -50t24 -9q13 0 27 9.5t36 33t34 55.5t12 67q0 29 -7 59t-11 42q-49 -10 -74.5 -40.5t-40.5 -80t-15 -86.5z" />
<glyph unicode="i" horiz-adv-x="295" d="M-5 65v460h99q0 -63 1 -207.5t1 -205.5q0 -33 7.5 -51.5t26.5 -13.5q48 10 94.5 79.5t87.5 130.5q-4 -28 -9 -41.5t-50 -81.5t-76.5 -107.5t-89.5 -39.5q-22 0 -57 13t-35 65zM-5 859v110l99 -2l2 -107z" />
<glyph unicode="j" horiz-adv-x="322" d="M-287 -616q0 93 40.5 177.5t99.5 155t141 152.5l-2 656h107l-3 -564q66 37 143 159t96 141q-36 -98 -95 -188.5t-134 -155.5q0 -52 1 -105t3 -106q0 -188 -49 -310t-134.5 -164t-99.5 -42q-33 0 -60 26.5t-40.5 69.5t-13.5 98zM-194 -631q0 -30 28.5 -69.5t53.5 -39.5 q12 0 44.5 40t49.5 158t17 278v84q-98 -77 -145.5 -191t-47.5 -260zM-16 888v100h93v-100h-93z" />
<glyph unicode="k" horiz-adv-x="595" d="M-8 -1v1229q0 14 17.5 23t38.5 9q23 0 38 -8.5t15 -23.5v-842q42 60 86 101.5t97 41.5q34 0 83.5 -33t49.5 -104q0 -25 -9.5 -53t-44.5 -51q-42 -23 -63 -35q67 -27 92 -42.5t25 -67.5q0 -25 -5.5 -44t-5.5 -35t4 -25t16 -9q76 0 115 58.5t59 135.5q0 -82 -41 -141 t-92 -77.5t-84 -18.5q-39 0 -67 15.5t-28 45.5q0 7 2.5 19.5t5.5 30.5t3 35q0 25 -6.5 42.5t-23.5 33t-36 15.5q-24 0 -60.5 -19t-66.5 -35v-25v-25v-21v-19v-16v-13v-31.5t-1 -20.5h-113zM102 287q0 -12 1.5 -41.5t1.5 -45.5q83 29 135 59t52 94l-3 20q-6 30 -25 51t-48 21 q-11 0 -24 -4q-53 -27 -71.5 -64t-18.5 -90z" />
<glyph unicode="l" horiz-adv-x="281" d="M-23 553q0 143 15 262t55 223.5t83 152t59 47.5q28 0 57.5 -38.5t44 -90t14.5 -119.5q0 -87 -28 -162.5t-81 -162.5t-100 -164v-153t2 -156q0 -19 -1.5 -40.5t-2.5 -41.5q0 -42 14 -46.5t20 -5.5t18 -1q64 0 94 53t71 163q-20 -119 -57 -171.5t-93 -79t-88 -26.5 q-36 0 -58.5 19t-22.5 58q0 70 -7.5 231.5t-7.5 248.5zM81 876q0 -48 6.5 -171t6.5 -162q55 77 85.5 128t51 113.5t20.5 132.5q0 76 -29 176q-18 54 -32 77t-27 23t-34.5 -41.5t-34.5 -116t-13 -159.5z" />
<glyph unicode="m" horiz-adv-x="999" d="M-10 296q0 78 2.5 125.5t6.5 83.5q0 7 17 13t36 6t30 -5.5t11 -17.5v-437q0 -25 20 -25q10 0 49 40t82.5 151.5t72 184t41 91t40.5 18.5q17 1 25 1q22 0 22 -13l6 -434q0 -11 10 -17t24 -6q16 0 60.5 58t81.5 175t69 225q7 5 21.5 7.5t27.5 2.5q6 0 15 -0.5t21 -0.5 q7 0 21 2q0 -90 2 -223.5t3 -212.5q0 -14 9 -26.5t25 -12.5q8 0 35.5 14.5t65 67t82.5 129.5q-29 -77 -71 -132t-94 -92.5t-86 -37.5q-30 0 -49.5 14.5t-19.5 42.5q-2 93 -3.5 204t-1.5 202q-41 -126 -82 -251q-66 -155 -124 -183.5t-70 -28.5q-25 0 -50 18.5t-30.5 45 t-8 61.5t-2.5 76q0 46 6.5 141t6.5 111q-64 -190 -123 -309t-114 -130.5t-66 -12.5q-21 0 -29 30q-12 53 -17.5 123.5t-5.5 143.5z" />
<glyph unicode="n" horiz-adv-x="640" d="M-10 67v437q0 8 22.5 14.5t47.5 6.5q27 0 27 -9l1 -445q0 -23 16 -23q13 0 35 19t50 58.5t64 130t53 149t26 94.5q7 16 21 22.5t36 6.5q20 0 33 -2.5t18 -3t6 -34t1 -47.5q0 -40 -0.5 -82t-0.5 -88q0 -47 1 -93.5t4 -76t9.5 -41.5t22.5 -12q10 0 34 13.5t57 55.5t83 138 q-61 -143 -97.5 -198.5t-124.5 -55.5h-23q-52 0 -66 25.5t-14 77.5l3 326q-12 -30 -55 -151t-69.5 -160t-66.5 -76.5t-57 -41.5q-5 -1 -16 -1q-33 0 -57 19.5t-24 47.5z" />
<glyph unicode="o" horiz-adv-x="504" d="M8 176q0 28 5 56.5t23 89t74 117.5t114 73t74 16q46 0 85 -36.5t56 -85.5q10 -25 13 -47.5t3 -50.5q0 -57 -21.5 -106t-63.5 -99.5t-91.5 -77.5t-103.5 -27q-36 0 -78.5 17.5t-65.5 61t-23 99.5zM86 290q0 -57 19.5 -110.5t50.5 -92.5t73 -39q48 0 89 54.5t41 150.5 q0 64 -27 124q-18 39 -54 68.5t-73 29.5q-34 0 -61.5 -29t-42.5 -70t-15 -86z" />
<glyph unicode="p" horiz-adv-x="491" d="M-6 490h76q7 -128 16 -254q23 -145 92 -168t85 -23q31 0 57.5 19.5t40.5 56t14 80.5q0 88 -41 149.5t-74.5 84.5t-75.5 23q-41 0 -85 -27q61 64 84.5 79.5t58.5 15.5q61 0 100 -36.5t72 -106.5q27 -57 27 -116q0 -101 -61.5 -161t-106 -83t-91.5 -23t-89 27l1 -741h-100 v1204z" />
<glyph unicode="q" horiz-adv-x="499" d="M-6 177q0 35 9.5 107.5t70 132.5t122 84t76.5 24q27 0 43.5 -9.5t56.5 -38.5q19 17 26 23.5t18 19.5l18 -45q0 -213 -3 -515.5t-5 -475.5t-3 -173q0 -25 -42 -25q-22 0 -37.5 7.5t-15.5 23.5l1 806q-34 -49 -87 -87t-107 -38q-30 0 -67 18.5t-55.5 60.5t-18.5 100z M64 277q0 -67 32.5 -118.5t59.5 -74.5t56 -23q17 0 48.5 18.5t48 56t16.5 89.5q0 28 -7.5 91.5t-7.5 65.5q-4 37 -36 63t-73 26q-27 0 -52 -14t-55 -63t-30 -117z" />
<glyph unicode="r" horiz-adv-x="525" d="M27 457q0 34 21.5 58t62.5 42q-1 -4 -1 -16q0 -37 16 -76.5t44 -39.5q5 0 32.5 8.5t69 58t59.5 65.5q-54 -73 -82.5 -119t-50.5 -104t-22 -116q0 -43 11 -78t39 -51.5t64 -16.5q40 0 88 24t91 68.5t83 99.5q-92 -154 -167 -211.5t-152 -57.5q-12 0 -26 0.5t-43.5 10.5 t-43.5 28t-34.5 59.5t-20.5 76.5q0 49 22.5 87.5t81.5 123.5q-6 -1 -22 -2q-45 0 -82.5 19t-37.5 59z" />
<glyph unicode="s" horiz-adv-x="360" d="M-31 117q0 20 12.5 39.5t29 27.5t23.5 8q19 0 29 -18.5t10 -39.5q0 -11 -13 -28t-13 -25q0 -12 17 -27t39 -26.5t42 -11.5q24 0 45.5 21.5t34 53.5t12.5 67q0 47 -22.5 118t-50.5 156l-165 -192l-3 21q128 152 256 305q5 -8 5 -15q0 -12 -24.5 -30.5t-19.5 -31.5 q10 -35 63 -124.5t53 -145.5q0 -19 -5 -41t-16 -44q-22 -46 -58.5 -76t-73.5 -43.5t-63 -13.5q-40 0 -74 19t-48.5 40.5t-18 34t-3.5 22.5z" />
<glyph unicode="t" horiz-adv-x="298" d="M-10 782q0 13 21.5 22t45.5 9q28 0 27 -14l2 -270l120 1l-10 -19l-112 -1v-422q0 -7 16.5 -21t36.5 -14q41 0 89 56t97 196q-33 -113 -76 -189t-94.5 -96.5t-65.5 -20.5q-34 0 -64.5 24.5t-30.5 57.5z" />
<glyph unicode="u" horiz-adv-x="683" d="M12 64v446q0 14 42 14q22 0 36.5 -6t14.5 -18l1 -410q0 -50 27 -50h1q5 0 61 16.5t103 86t47 167.5l-4 204q0 12 32 12q16 0 32.5 -1t33.5 -2q12 0 16 1v-413q0 -48 22 -58.5t29 -10.5q45 0 99 80.5t88 152.5q-24 -94 -96.5 -184.5t-148.5 -90.5q-36 0 -59.5 14.5 t-35.5 38t-12 71.5v28t1 28q-37 -60 -89 -99t-99 -60t-83 -21q-28 0 -43.5 14.5t-15.5 49.5z" />
<glyph unicode="v" horiz-adv-x="525" d="M6 354q0 24 5.5 46.5t17 45.5t29 38.5t35.5 28.5q-12 -35 -12 -70q0 -76 42.5 -136t143.5 -173q51 42 75 85.5t24 106.5q0 51 -10.5 77.5t-36.5 37.5t-35 11q-27 0 -33 -21q-12 12 -12 27q0 12 5 21.5t23.5 27.5t51.5 18q39 0 75.5 -27t53.5 -67q12 -25 17 -47.5t5 -42.5 q0 -63 -56 -119l-110 -98q-65 -61 -78 -124q-5 12 -112.5 149.5t-107.5 204.5z" />
<glyph unicode="w" horiz-adv-x="869" d="M-12 346q0 33 12.5 62t42.5 63q5 11 22 18t25 11q-4 -6 -20 -26t-16 -38q0 -7 6.5 -51t69 -121.5t146.5 -129.5l48 86q25 53 25 98q0 40 -25.5 86.5t-77.5 46.5q-7 0 -22 -3q4 31 29.5 50.5t63.5 24.5q6 1 11 1q18 0 34 -11q20 -14 39 -42q4 19 12.5 25t31.5 21 q-12 -33 -13 -70q0 -59 39.5 -132t147.5 -181q51 41 75 83t24 102q0 49 -22.5 86.5t-50 41.5t-39.5 6q-12 0 -28 -17q-1 5 -1 11q0 30 25 51q29 25 69 25q43 0 71.5 -26t45.5 -73q16 -42 16 -77q0 -73 -116 -186.5t-121 -160.5q-13 8 -21.5 39t-19.5 43l-133 144 q-60 -34 -118 -122t-74 -104q-18 43 -84 121t-97.5 123.5t-31.5 101.5z" />
<glyph unicode="x" horiz-adv-x="696" d="M-7 142q0 29 10 49.5t24.5 26.5t26.5 6q27 0 49 -21t22 -48q0 -19 -14.5 -36t-14.5 -31q0 -7 5.5 -22t22 -26t35.5 -11q35 0 67 25.5t36 73.5t4 113q0 69 -9 128.5t-31 99.5q-16 23 -48 23q-14 0 -29.5 -4t-44 -11t-55.5 -47t-27 -89q0 -8 2 -25l-16 -3q-1 8 -1 26 q0 70 42.5 116.5t90 58.5t66.5 12q47 0 86 -24t66 -66q39 41 70.5 64.5t72.5 23.5q31 0 61.5 -18t46 -51t29.5 -65q-37 -30 -84 -30q-12 0 -19 1q0 64 -9.5 86t-29 32.5t-29.5 10.5q-24 0 -54 -29q-30 -35 -40 -44q0 -73 1 -153t6.5 -130t49 -77t68.5 -27q65 0 122.5 80 t57.5 153q0 -78 -43 -151t-97.5 -96t-86.5 -23q-47 0 -92.5 28t-81.5 75q-17 -33 -56.5 -63.5t-81.5 -30.5q-28 0 -64 20.5t-53.5 35.5t-23 40.5t-5.5 43.5z" />
<glyph unicode="y" horiz-adv-x="639" d="M-5 75v425q0 12 12 18t30 6q22 0 39.5 -8t17.5 -20v-433q0 -27 31 -27q16 0 40 9t52 28t52 66t47 91v263q0 17 19 26.5t43 9.5q23 0 37.5 -8t14.5 -25v-533q70 49 128 133.5t82 161.5l18 7q-35 -95 -94 -180.5t-134 -149.5q0 -22 1 -73.5t1 -80.5q0 -180 -34 -271.5 t-84 -135.5t-92 -64.5t-81 -20.5q-22 0 -35 6q-34 13 -47.5 43t-13.5 72q0 22 3.5 49t9 70t45.5 109.5t83.5 110.5t129.5 123v328q-18 -40 -35 -74t-52 -63t-65 -46t-65 -17q-22 0 -46.5 8t-41 25.5t-16.5 41.5zM108 -559q0 -47 16.5 -78.5t59.5 -41.5q3 -1 6 -1q21 0 63 28 q49 33 55 68q5 30 7 139t2 153v29v24v20v15v33t-1 23q-76 -57 -133.5 -146.5t-63.5 -144t-8.5 -79t-2.5 -41.5z" />
<glyph unicode="z" horiz-adv-x="510" d="M-5 305q0 51 40 102t88.5 85t100.5 34q34 0 70.5 -18t56 -24t36.5 -6q23 0 41 10q-48 -70 -94.5 -167t-87.5 -209q28 0 82 -3.5t89 -3.5q24 0 37.5 34.5t25.5 68.5q-14 -130 -75 -208q-55 27 -119 27q-63 0 -119 -27q14 60 47.5 126t66.5 134t43 123q-31 0 -97 27t-86 27 q-27 0 -59.5 -18.5t-48.5 -51t-34 -100.5q-4 20 -4 38z" />
<glyph unicode="&#xad;" d="M51 488q29 5 74 9t97 4t90.5 -4t81.5 -16q-5 4 -8.5 11t-3.5 26q0 17 1 25t9 29q-71 0 -175 -11.5t-159 -28.5q0 -13 -2.5 -23.5t-4.5 -20.5z" />
<glyph unicode="&#xae;" horiz-adv-x="689" d="M27 457q0 34 21.5 58t62.5 42q-1 -4 -1 -16q0 -37 16 -76.5t44 -39.5q5 0 32.5 8.5t69 58t59.5 65.5q-54 -73 -82.5 -119t-50.5 -104t-22 -116q0 -43 11.5 -79.5t41.5 -55t67 -18.5q42 0 62 18.5t75 88.5t75.5 72t37.5 2q102 0 118.5 -55.5t16.5 -73.5q0 -77 -56 -105 t-88 -28q-25 0 -44.5 9t-34.5 31q25 -14 44.5 -21t39.5 -7q31 0 73.5 27.5t42.5 89.5q0 18 -11.5 50t-34.5 45.5t-92 13.5q-31 0 -78 -64.5t-69 -87.5t-74.5 -46.5t-96.5 -23.5q-20 0 -64.5 14t-59.5 65.5t-15 80.5q0 64 28 107.5t78 113.5q-6 -1 -22 -2q-45 0 -82.5 19 t-37.5 59z" />
<glyph unicode="&#xb4;" horiz-adv-x="766" d="M-8 214q0 69 33 140.5t65 103.5t77.5 49.5t51.5 17.5h10q41 0 71.5 -26.5t33 -51t2.5 -39.5q0 -67 -48 -106t-186 -90q12 -78 38.5 -115.5t73.5 -57.5t67 -23.5t37 -3.5q73 0 149 46.5t117 100t54 84t13 62.5q0 47 -26 67.5t-42 28t-29 7.5q-28 0 -61 -35q12 39 30 68.5 t41.5 34.5t29.5 5q39 0 69.5 -30t37.5 -72q4 -24 4 -47q0 -99 -69 -177.5t-169 -123.5t-206 -45q-67 0 -122 18t-86 53t-46 75.5t-15 81.5zM99 335q0 -24 1.5 -62t1.5 -39q84 42 122.5 74t38.5 90l-3 27q-5 23 -24 35t-46 12q-28 0 -50 -20t-31.5 -49.5t-9.5 -67.5z" />
<glyph unicode="&#xc2;" horiz-adv-x="1517" d="M-12 267q0 96 55 149t96.5 72.5t82.5 19.5q36 0 93.5 -28.5t57.5 -116.5q0 -30 -11 -56t-35.5 -44t-47.5 -33l-10 12q24 16 48 31q22 18 25.5 34t3.5 25q0 31 -22 56.5t-54 43.5q-22 4 -41 4q-80 0 -146.5 -67t-66.5 -147q0 -42 24 -89t64.5 -75.5t77 -33.5t45.5 -5.5 t14 -0.5q75 0 131 47t74 100.5t18 159.5l20 753q0 70 29.5 102t75.5 32q47 0 86 -31t39 -74l-9 -1019q0 -35 29 -35q24 0 50 21t26 42l10 991q0 43 30.5 67.5t77.5 24.5q37 0 69 -24.5t47 -57.5q10 -57 14.5 -118.5t4.5 -133.5q0 -82 -7.5 -249t-7.5 -198q0 -77 2 -111 t9 -97q14 -72 47.5 -123t69.5 -59t45 -9t21 -1q55 0 100.5 30t62.5 70.5t23.5 78.5t6.5 73q0 57 -15 108.5t-48.5 89.5t-77.5 38q-39 0 -86.5 -33t-47.5 -96q0 -29 17.5 -56t47.5 -50t58 -23q20 0 34 14t20 49q6 -12 6 -22q0 -23 -23.5 -43t-41 -24.5t-24.5 -4.5h-11 q-37 0 -68 23t-41 47.5t-13.5 42t-3.5 28.5q0 71 53 116.5t112 45.5q24 0 44.5 -6t62 -27.5t73.5 -65t32 -82.5v-38q0 -75 -10.5 -120.5t-51.5 -90.5t-97 -70t-117 -25q-49 0 -98 17q-118 75 -161 197t-43 292q0 72 10 232.5t10 214.5q0 65 -5.5 119.5t-18.5 102.5 q-28 0 -52 -18t-24 -46l-10 -1010q0 -36 -26.5 -60t-48.5 -28t-27 -4h-7q-40 0 -74.5 24.5t-40.5 58.5q-14 135 -19.5 300.5t-5.5 358.5q0 148 2.5 250.5t4.5 175.5q0 19 -13 19q-19 0 -44.5 -39.5t-25.5 -90.5l-24 -706q0 -19 1 -54t1 -50q0 -49 -10.5 -88t-67 -102 t-159.5 -63q-30 0 -82 13t-90.5 50t-60 95t-21.5 111z" />
<glyph unicode="&#xfd;" horiz-adv-x="0" />
<glyph unicode="&#x2dc;" horiz-adv-x="452" d="M-14 478q7 23 29 29t63 6q11 -11 11 -24q0 -10 -6.5 -28.5t-6.5 -24.5q0 -17 19 -28q23 36 50.5 62t66.5 43q24 7 46 7q61 0 108 -45t54 -106q5 -24 7.5 -55t2.5 -59q0 -128 -47.5 -247.5t-130.5 -249.5h-30q53 84 79.5 193t26.5 226q0 129 -28 249q-39 57 -87 57 q-14 0 -31.5 -6t-34.5 -16q-35 -55 -47.5 -125t-12.5 -160q0 -29 1 -85.5t1 -83.5q-12 -5 -23.5 -6t-28.5 -1h-23.5t-23.5 1z" />
<glyph unicode="&#x2000;" horiz-adv-x="682" />
<glyph unicode="&#x2001;" horiz-adv-x="1365" />
<glyph unicode="&#x2002;" horiz-adv-x="682" />
<glyph unicode="&#x2003;" horiz-adv-x="1365" />
<glyph unicode="&#x2004;" horiz-adv-x="455" />
<glyph unicode="&#x2005;" horiz-adv-x="341" />
<glyph unicode="&#x2006;" horiz-adv-x="227" />
<glyph unicode="&#x2007;" horiz-adv-x="227" />
<glyph unicode="&#x2008;" horiz-adv-x="170" />
<glyph unicode="&#x2009;" horiz-adv-x="273" />
<glyph unicode="&#x200a;" horiz-adv-x="75" />
<glyph unicode="&#x2010;" d="M51 488q29 5 74 9t97 4t90.5 -4t81.5 -16q-5 4 -8.5 11t-3.5 26q0 17 1 25t9 29q-71 0 -175 -11.5t-159 -28.5q0 -13 -2.5 -23.5t-4.5 -20.5z" />
<glyph unicode="&#x2011;" d="M51 488q29 5 74 9t97 4t90.5 -4t81.5 -16q-5 4 -8.5 11t-3.5 26q0 17 1 25t9 29q-71 0 -175 -11.5t-159 -28.5q0 -13 -2.5 -23.5t-4.5 -20.5z" />
<glyph unicode="&#x2012;" d="M51 488q29 5 74 9t97 4t90.5 -4t81.5 -16q-5 4 -8.5 11t-3.5 26q0 17 1 25t9 29q-71 0 -175 -11.5t-159 -28.5q0 -13 -2.5 -23.5t-4.5 -20.5z" />
<glyph unicode="&#x2013;" horiz-adv-x="501" d="M25 488q39 5 97.5 9t124.5 4q67 0 118 -4t106 -16q-6 4 -11.5 11t-5.5 26q0 23 13 54q-92 0 -227 -11.5t-206 -28.5q0 -14 -3.5 -26t-5.5 -18z" />
<glyph unicode="&#x2014;" horiz-adv-x="633" d="M28 488q51 5 127 9t162 4q87 0 152 -4t138 -16q-4 2 -12 8.5t-8 28.5q0 13 3 24t14 30q-119 0 -294.5 -11.5t-269.5 -28.5q-2 -17 -6 -27.5t-6 -16.5z" />
<glyph unicode="&#x2018;" horiz-adv-x="150" d="M23 1052q0 25 6 44q8 1 15 1h9q34 0 55 -16q-5 -12 -7 -28t-2 -30q0 -25 9 -70t10 -59q-5 8 -19.5 15.5t-31 25.5t-30.5 49.5t-14 67.5z" />
<glyph unicode="&#x2019;" horiz-adv-x="144" d="M13 894l20 130q0 33 -10 57q22 17 58 16q14 0 21 -1q4 -11 5 -21.5t1 -23.5q0 -34 -14 -66t-41 -62q-20 -14 -40 -29z" />
<glyph unicode="&#x201c;" horiz-adv-x="246" d="M23 1052q0 25 6 44q8 1 15 1h9q34 0 55 -16q-5 -12 -7 -28t-2 -30q0 -25 9 -70t10 -59q-5 8 -19.5 15.5t-31 25.5t-30.5 49.5t-14 67.5zM137 1052q0 25 6 44q8 1 15 1h9q34 0 56 -16q-5 -12 -7.5 -28t-2.5 -30q0 -25 9.5 -70t10.5 -59q-5 8 -19.5 15.5t-31.5 25.5 t-31 49.5t-14 67.5z" />
<glyph unicode="&#x201d;" horiz-adv-x="246" d="M13 894l20 130q0 33 -10 57q22 17 58 16q14 0 21 -1q4 -11 5 -21.5t1 -23.5q0 -34 -14 -66t-41 -62q-20 -14 -40 -29zM128 894q10 65 19 130q0 33 -10 57q22 17 58 16q15 0 22 -1q4 -11 5 -21.5t1 -23.5q0 -34 -14.5 -66t-41.5 -62q-20 -14 -39 -29z" />
<glyph unicode="&#x2022;" horiz-adv-x="289" d="M29 563q0 39 24.5 73t48.5 40t33.5 7t16.5 1q53 1 87 -44q18 -23 18 -58q0 -41 -25 -77t-52.5 -42t-42.5 -6q-61 0 -84.5 38.5t-23.5 67.5z" />
<glyph unicode="&#x202f;" horiz-adv-x="273" />
<glyph unicode="&#x205f;" horiz-adv-x="341" />
<glyph unicode="&#x25fc;" horiz-adv-x="524" d="M0 0v524h524v-524h-524z" />
</font>
</defs>
</svg>
